<?xml version="1.0" standalone="no"?>
<!DOCTYPE svg PUBLIC "-//W3C//DTD SVG 20010904//EN"
 "http://www.w3.org/TR/2001/REC-SVG-20010904/DTD/svg10.dtd">
<svg version="1.0" xmlns="http://www.w3.org/2000/svg"
 width="1333.000000pt" height="2000.000000pt" viewBox="0 0 1333.000000 2000.000000"
 preserveAspectRatio="xMidYMid meet">
<metadata>
Created by potrace 1.16, written by Peter Selinger 2001-2019
</metadata>
<g transform="translate(0.000000,2000.000000) scale(0.100000,-0.100000)"
fill="#000000" stroke="none">
<path d="M6170 16831 c-145 -29 -185 -46 -370 -162 -219 -137 -319 -333 -350
-688 -10 -125 -15 -145 -29 -136 -5 2 -21 -14 -36 -38 -30 -45 -108 -142 -170
-211 -46 -51 -201 -220 -213 -233 -11 -11 -11 -14 2 -19 9 -3 23 -4 31 0 27
10 16 -8 -35 -59 -33 -34 -47 -56 -44 -67 4 -14 1 -16 -12 -11 -10 4 -15 2
-11 -3 3 -6 -5 -19 -19 -29 -17 -12 -21 -21 -13 -25 8 -5 5 -14 -11 -30 -28
-28 -21 -37 8 -10 12 11 25 20 30 20 5 0 7 11 4 25 -6 34 7 32 19 -4 6 -16 17
-32 25 -35 8 -3 13 -2 10 3 -3 5 3 11 14 14 11 3 20 13 20 24 0 22 39 88 47
79 3 -3 -1 -14 -10 -24 -19 -20 -22 -42 -8 -42 6 0 13 5 16 11 5 6 12 4 20 -8
13 -17 14 -16 24 10 6 15 14 39 17 52 9 35 43 17 37 -20 -3 -14 -9 -25 -14
-25 -5 0 -6 6 -3 14 3 8 1 17 -5 21 -6 3 -11 0 -12 -7 0 -7 -2 -20 -5 -28 -17
-64 -17 -69 4 -63 11 3 29 0 39 -6 11 -6 13 -11 5 -11 -14 0 -142 -60 -142
-66 0 -2 12 1 27 7 18 6 28 6 33 0 6 -11 43 -7 85 9 14 5 25 6 25 0 0 -14 -30
-40 -46 -40 -8 0 -17 -7 -20 -15 -4 -8 -11 -12 -18 -8 -6 3 -7 2 -3 -2 4 -5
25 -8 46 -6 23 1 42 -3 47 -10 4 -7 3 -10 -2 -6 -15 9 -72 -23 -77 -43 -4 -14
0 -18 17 -17 27 3 156 88 156 103 0 7 19 14 43 16 51 6 62 1 19 -8 -17 -4 -37
-13 -43 -20 -9 -11 -5 -16 17 -24 l28 -11 -32 -22 c-18 -12 -30 -27 -28 -34 3
-6 2 -14 -2 -17 -3 -4 -8 -19 -9 -34 -2 -15 -11 -32 -19 -39 -34 -25 -120
-100 -173 -151 -45 -42 -53 -54 -41 -62 16 -10 14 -11 -72 -103 -21 -22 -38
-42 -39 -46 -1 -11 -7 -43 -18 -90 -16 -73 -22 -179 -12 -198 9 -19 25 -107
46 -261 8 -58 19 -100 29 -110 20 -20 31 -10 17 16 -13 24 -11 133 2 125 5 -3
6 4 2 18 -6 18 4 11 39 -26 40 -43 45 -46 36 -21 -9 23 -7 31 6 41 11 8 15 20
11 34 -3 11 -1 21 4 21 5 0 9 7 9 16 0 8 5 12 10 9 6 -3 10 -1 10 4 0 6 7 11
15 11 8 0 15 5 15 11 0 6 -8 8 -19 4 -11 -3 -21 0 -24 9 -7 18 1 26 26 26 10
0 21 9 24 20 3 11 11 20 18 20 7 0 18 7 25 15 7 8 17 15 23 15 5 0 2 -9 -8
-20 -13 -15 -15 -20 -4 -20 8 0 4 -6 -9 -16 -15 -10 -21 -22 -17 -37 8 -37 13
-116 7 -122 -8 -7 -8 -124 -1 -119 4 2 14 -24 24 -58 9 -34 20 -69 23 -77 3
-9 -5 -4 -16 11 -12 14 -22 31 -22 37 0 6 -4 11 -10 11 -5 0 -7 8 -4 18 5 14
4 15 -5 2 -10 -17 4 -107 20 -124 5 -6 8 -37 7 -70 -2 -60 -2 -60 -5 -12 -3
34 -14 63 -34 93 -31 44 -48 58 -29 24 15 -28 12 -120 -5 -177 -19 -63 -19
-72 1 -48 15 18 15 18 10 -5 l-5 -23 25 23 c29 27 30 20 4 -54 -26 -73 -25
-87 3 -53 12 15 35 41 51 58 38 38 69 105 53 112 -9 3 -9 5 0 5 7 1 10 7 7 15
-3 8 0 23 6 33 10 16 11 16 6 1 -3 -10 -1 -18 4 -18 6 0 10 4 10 10 0 5 7 7
16 3 12 -4 8 10 -15 50 -17 32 -27 57 -21 57 5 0 10 9 10 19 0 11 4 21 10 23
15 5 24 88 10 88 -8 0 -7 8 5 26 9 14 14 28 11 32 -3 3 -6 -1 -7 -9 0 -8 -4
-4 -10 9 -7 18 -14 22 -31 17 -21 -6 -22 -5 -5 8 9 8 17 19 17 26 0 6 5 11 10
11 6 0 10 7 10 15 0 8 -4 15 -9 15 -5 0 -3 13 5 30 9 16 16 45 17 64 1 19 5
32 10 29 4 -2 7 6 7 18 0 29 11 17 32 -34 l17 -42 -6 44 c-4 32 -3 42 5 37 7
-4 12 -20 12 -36 0 -16 5 -32 10 -35 6 -4 10 6 10 22 0 16 7 38 15 49 8 10 15
28 15 39 1 27 26 59 39 50 6 -3 11 -2 11 4 0 6 -10 15 -21 22 -21 11 -21 16
-16 103 4 60 15 116 32 165 15 41 24 83 22 93 -3 10 -1 18 4 18 5 0 9 9 9 19
0 11 6 26 13 33 7 7 14 38 15 68 3 62 57 230 100 311 16 30 31 64 34 77 3 12
13 22 22 22 9 0 16 4 16 9 0 5 8 7 19 4 25 -6 55 25 40 43 -8 10 -5 15 15 20
15 3 31 15 37 26 11 21 55 41 71 32 15 -9 -30 -52 -69 -65 -19 -6 -32 -13 -29
-16 5 -6 41 6 104 35 26 11 38 12 58 4 21 -10 24 -9 24 8 0 10 5 22 10 25 6 3
10 16 10 27 0 12 -3 19 -6 15 -8 -8 -56 17 -73 37 -10 12 -8 17 11 30 13 8 40
18 60 21 20 4 39 13 42 21 6 17 -8 18 -35 4 -30 -17 -46 0 -19 20 22 17 70 16
70 -1 0 -5 4 -9 8 -9 13 0 72 55 72 67 0 6 7 16 15 23 12 10 15 10 15 -1 0
-10 3 -10 12 -1 7 7 20 12 31 12 20 0 49 24 45 37 -4 11 67 83 81 83 6 0 11 9
11 20 0 11 3 19 8 19 19 -3 25 2 12 11 -12 8 -12 10 -1 10 16 0 61 50 61 68 0
7 4 11 9 7 5 -3 13 0 17 6 4 8 3 9 -4 5 -7 -4 -12 -3 -12 2 0 13 34 42 51 42
22 1 52 27 44 39 -3 6 0 11 8 11 8 0 20 7 27 15 10 12 9 15 -4 15 -13 0 -16 5
-10 23 3 12 11 24 15 25 5 2 9 10 9 18 0 14 11 18 40 15 11 -1 12 0 3 7 -16
10 10 52 32 52 8 0 18 8 24 17 5 10 12 15 16 12 8 -9 -31 -118 -50 -139 -8 -9
-12 -20 -8 -23 3 -4 -3 -7 -15 -7 -27 0 -28 -8 -1 -31 21 -18 19 -39 -7 -103
-5 -13 -4 -17 3 -13 6 4 18 4 27 1 14 -5 11 -16 -20 -73 -37 -69 -51 -88 -58
-80 -3 2 9 31 25 64 32 66 35 79 17 72 -7 -2 -12 -12 -12 -21 1 -9 -2 -16 -7
-16 -5 0 -9 -6 -9 -14 0 -8 -7 -13 -16 -12 -9 0 -19 -6 -21 -14 -4 -13 -3 -13
6 0 18 26 24 1 8 -32 -9 -18 -17 -28 -17 -23 -1 6 -7 -5 -15 -24 -8 -18 -12
-37 -9 -42 3 -6 1 -15 -4 -22 -12 -15 -21 -77 -11 -77 6 0 17 39 23 88 3 26
42 70 52 59 4 -4 -1 -15 -10 -26 -11 -12 -13 -20 -6 -23 8 -2 6 -14 -4 -39 -8
-20 -17 -47 -20 -60 -17 -87 -29 -129 -37 -129 -5 0 -9 -5 -9 -11 0 -5 5 -7
10 -4 6 3 10 -2 11 -12 2 -29 17 26 18 65 1 19 5 31 11 27 6 -3 10 5 10 19 0
35 17 41 24 8 4 -15 9 -36 12 -47 4 -16 3 -17 -5 -5 -7 10 -8 -3 -4 -45 3 -33
7 -62 9 -64 10 -12 34 26 34 55 0 18 4 35 10 39 5 3 6 13 3 21 -3 9 -1 19 6
23 6 4 17 27 25 52 11 36 14 39 15 17 1 -15 5 -29 9 -32 5 -3 9 -37 9 -75 1
-82 11 -149 24 -157 5 -3 9 2 9 12 0 13 3 14 15 4 17 -14 21 -115 5 -125 -5
-3 -11 0 -12 7 0 7 -2 18 -3 23 -2 6 -4 17 -5 25 -1 11 -4 9 -10 -5 -4 -11 -6
-49 -3 -85 3 -36 4 -63 1 -60 -13 12 -66 119 -78 153 -11 37 -13 37 -26 19
-12 -17 -11 -33 6 -113 11 -51 20 -109 20 -129 0 -20 8 -54 19 -76 10 -21 21
-53 24 -71 5 -27 4 -31 -11 -26 -9 4 -21 12 -25 20 -4 7 -15 13 -22 13 -8 0
-15 7 -15 15 0 8 -10 33 -22 56 -12 23 -25 58 -29 78 l-7 36 -1 -38 c0 -21 6
-51 14 -66 8 -16 12 -31 8 -34 -8 -8 -64 4 -88 19 -11 6 -46 15 -77 19 -32 3
-60 11 -63 16 -4 5 -14 9 -23 9 -15 0 -15 -2 -2 -10 11 -7 12 -10 2 -10 -9 0
-11 -7 -6 -22 7 -23 6 -23 -14 -4 -12 10 -19 24 -15 30 3 6 2 8 -2 3 -5 -4
-20 3 -33 15 -31 29 -21 9 35 -64 23 -31 47 -68 53 -83 13 -35 14 -132 1 -175
-13 -42 -14 -60 -2 -60 5 0 11 19 15 43 13 78 47 177 69 198 29 28 98 22 169
-15 79 -41 147 -65 154 -55 3 6 14 7 25 4 12 -4 21 -1 25 9 3 9 11 16 16 16 6
0 -2 -17 -17 -37 -16 -21 -22 -32 -15 -25 8 6 19 12 25 12 5 -1 1 -9 -10 -18
-29 -26 -65 -79 -65 -97 0 -30 26 -14 70 42 25 32 65 79 88 105 44 47 61 91
62 155 0 20 12 48 35 77 19 26 35 51 35 58 0 6 -3 9 -6 5 -3 -3 -18 5 -32 18
-14 13 -23 27 -19 31 4 4 16 -1 27 -11 19 -18 20 -18 14 -1 -5 12 2 26 20 43
15 14 25 27 22 30 -3 3 -31 5 -63 5 l-58 -1 -25 54 c-22 49 -27 53 -37 38 -14
-18 -15 -18 -31 12 -8 15 -12 16 -13 5 -1 -15 -6 -1 -28 68 -11 36 0 44 15 10
6 -13 9 -17 7 -10 -4 22 15 13 23 -10 7 -20 9 -18 15 17 4 22 9 58 10 80 1 24
3 31 6 18 5 -26 23 -31 23 -8 0 8 8 23 18 33 10 10 28 49 40 87 17 53 33 79
63 106 31 30 39 44 39 72 0 20 -6 42 -12 49 -50 54 -51 56 -34 73 9 9 16 26
16 38 0 62 35 104 90 108 41 2 48 0 53 -18 7 -32 29 38 28 90 0 26 3 45 8 42
5 -3 12 3 14 12 3 10 5 0 6 -22 1 -50 -24 -136 -45 -152 -9 -6 -14 -20 -11
-30 2 -12 14 3 36 49 32 67 33 69 29 195 -3 127 -3 129 -38 183 -19 30 -41 62
-48 70 -7 8 -34 42 -61 75 -58 72 -171 183 -226 222 -54 39 -112 65 -230 106
-241 83 -344 97 -495 68z m85 -623 c-6 -17 -4 -20 10 -15 9 4 25 1 36 -7 19
-13 19 -14 -3 -19 -13 -4 -24 -2 -26 3 -6 15 -32 12 -32 -4 0 -8 -3 -22 -7
-32 -6 -16 -2 -15 29 4 44 27 48 27 48 1 0 -20 1 -21 25 -5 14 9 30 14 35 11
6 -3 10 -1 10 4 0 6 6 11 14 11 8 0 17 7 20 16 4 9 9 15 11 12 3 -3 -1 -18 -9
-33 -16 -30 -13 -45 8 -45 7 0 12 -10 10 -22 -1 -13 -3 -27 -3 -32 -1 -4 -8
-6 -15 -3 -10 4 -13 1 -10 -7 6 -15 -20 -39 -47 -43 -14 -2 -17 2 -12 15 6 16
5 16 -13 1 -19 -16 -54 -22 -54 -9 0 3 5 11 12 18 17 17 2 27 -17 12 -14 -12
-15 -10 -10 13 9 33 3 34 -29 2 -14 -14 -30 -25 -36 -25 -15 0 -12 20 5 26 16
6 20 40 8 69 -5 14 -9 10 -17 -15 -6 -19 -18 -36 -26 -38 -8 -3 -12 -1 -8 3 4
4 1 13 -5 20 -10 11 -16 10 -32 -3 -19 -17 -19 -17 -2 8 9 14 22 36 27 49 7
15 16 21 26 17 8 -3 17 1 20 9 8 20 21 19 28 -2 3 -11 4 -8 3 7 -2 28 9 50 24
50 6 0 7 -9 4 -22z m-943 -755 c9 -10 18 -27 20 -38 2 -11 9 -19 15 -18 14 3
27 -32 18 -47 -4 -6 -11 -7 -17 -4 -8 5 -9 -8 -6 -40 3 -25 1 -49 -4 -52 -11
-7 -33 12 -33 29 -1 7 -6 11 -13 10 -7 -2 -12 8 -12 21 0 14 -5 28 -12 32 -8
5 -10 -10 -5 -56 8 -87 -22 -151 -38 -80 -4 17 -11 30 -16 30 -9 0 -18 18 -33
68 -6 16 -3 22 9 22 8 0 19 8 23 19 9 24 75 120 83 121 3 0 13 -8 21 -17z
m309 -235 c1 -13 4 -50 7 -83 10 -110 6 -159 -19 -223 l-24 -62 -11 32 c-8 24
-7 41 4 72 17 49 11 89 -21 160 l-25 54 26 36 c29 41 61 48 63 14z m-231 -666
c-19 -26 -38 -50 -43 -53 -5 -3 -1 -9 8 -12 9 -4 13 -3 10 3 -3 6 -2 10 4 10
18 0 21 -18 5 -24 -9 -4 -14 -13 -10 -21 3 -8 1 -15 -5 -15 -6 0 -8 -4 -5 -9
6 -10 -36 -52 -56 -54 -7 -2 -24 -13 -36 -25 -12 -12 -29 -22 -37 -22 -8 0
-15 -5 -15 -11 0 -5 -4 -8 -9 -5 -5 4 -11 3 -13 -2 -5 -12 -88 -74 -88 -65 0
4 28 33 62 63 109 98 124 114 141 149 9 19 17 37 17 40 0 10 94 110 99 105 2
-2 -11 -25 -29 -52z"/>
<path d="M5896 13917 c-15 -29 -93 -180 -173 -337 -81 -157 -154 -299 -164
-317 -17 -30 -17 -32 -1 -36 14 -4 13 -5 -3 -6 -17 -1 -18 -3 -5 -11 10 -6 11
-10 3 -10 -8 0 -14 -14 -14 -32 l-2 -33 -8 35 c-6 27 -7 22 -4 -25 2 -33 0
-67 -5 -75 -6 -9 -5 -17 3 -22 9 -6 9 -8 0 -8 -7 0 -13 -7 -13 -15 0 -9 6 -12
16 -8 14 5 15 1 10 -28 -3 -19 -3 -27 0 -19 4 8 17 39 30 68 14 30 40 93 59
140 19 48 55 137 80 197 61 144 227 586 223 591 -2 2 -16 -20 -32 -49z"/>
<path d="M3625 13626 c-51 -29 -112 -126 -69 -109 24 9 14 -66 -13 -93 -12
-13 -23 -28 -23 -34 0 -5 -5 -10 -11 -10 -18 0 -41 -29 -33 -42 5 -7 19 -21
32 -32 28 -22 15 -36 -35 -36 -18 0 -33 -5 -33 -11 0 -14 -25 -39 -39 -39 -6
0 -11 -21 -11 -48 0 -48 -20 -82 -48 -82 -25 0 -34 -40 -22 -91 10 -42 10 -53
-3 -67 -24 -28 -25 -46 -4 -76 12 -16 20 -43 19 -62 -1 -28 3 -35 23 -40 14
-3 37 -3 51 0 19 5 24 11 19 26 -4 12 -2 20 4 20 26 0 8 22 -31 37 -23 9 -36
19 -30 21 7 2 10 8 6 13 -3 5 1 9 10 9 8 0 16 -4 18 -9 2 -5 31 -22 65 -40 48
-24 71 -30 105 -27 56 6 81 -1 96 -25 9 -14 9 -23 1 -38 -7 -10 -9 -26 -4 -37
5 -13 9 -15 12 -6 3 6 19 12 37 12 18 0 37 5 43 11 12 12 16 7 43 -46 14 -28
18 -30 66 -27 40 2 54 -2 69 -18 27 -30 72 -26 105 10 15 17 33 30 38 30 18 0
8 64 -11 72 -24 10 -47 -1 -47 -23 0 -12 -7 -19 -19 -19 -15 0 -18 7 -16 33 1
20 -5 40 -18 55 -18 20 -20 28 -11 80 6 31 8 87 6 125 -3 57 -6 67 -22 67 -13
0 -17 5 -13 20 5 19 -31 63 -71 85 -15 8 -19 24 -19 75 -1 59 -4 67 -28 81
-14 9 -44 44 -66 77 -31 46 -43 77 -53 136 -16 85 -33 111 -65 92z"/>
<path d="M255 13091 c-42 -8 -95 -39 -95 -55 0 -20 44 -56 68 -56 14 0 44 -20
74 -50 28 -27 55 -50 60 -50 4 0 8 -13 8 -29 0 -16 7 -36 15 -45 8 -8 15 -19
15 -24 0 -6 14 -14 32 -17 26 -6 35 -3 51 16 16 20 28 24 68 23 41 0 49 3 49
18 0 23 11 23 55 -2 43 -24 70 -25 120 -4 31 13 46 14 81 5 26 -7 73 -8 115
-4 63 5 72 4 66 -9 -4 -12 21 -31 99 -74 58 -33 114 -63 126 -69 17 -9 19 -17
15 -56 -7 -54 -4 -59 49 -83 38 -17 44 -17 72 -2 38 20 79 20 112 1 38 -22 56
-18 70 14 17 43 5 82 -43 132 -31 33 -51 45 -77 48 -19 1 -36 7 -38 12 -2 5
-8 9 -14 9 -5 0 -28 13 -51 28 -49 32 -95 49 -169 63 -29 5 -57 11 -63 13 -45
15 -66 16 -84 6 -18 -9 -30 -6 -74 17 -68 37 -149 62 -217 67 -30 2 -73 9 -95
15 -22 6 -52 13 -66 16 -15 3 -46 21 -69 40 -23 19 -52 35 -65 35 -13 0 -25 4
-27 8 -1 4 -17 18 -35 30 -31 22 -74 26 -138 13z"/>
<path d="M5156 12738 c-11 -6 -35 -11 -54 -10 -19 1 -32 -1 -29 -5 12 -11 -15
-34 -27 -24 -8 6 -27 3 -55 -10 -24 -10 -50 -19 -58 -19 -8 0 -11 -5 -7 -11 5
-8 -3 -10 -25 -7 -22 3 -36 0 -44 -11 -14 -19 -36 -25 -134 -35 -18 -2 -39 -9
-47 -16 -9 -6 -39 -14 -68 -16 -69 -5 -91 -8 -106 -18 -7 -4 -12 -2 -12 4 0 7
-8 9 -22 4 -13 -4 -34 -8 -48 -9 -14 -2 -33 -6 -42 -10 -12 -4 -18 -3 -18 5 0
9 -3 10 -13 1 -8 -6 -16 -9 -18 -7 -2 3 -19 -8 -38 -23 -34 -28 -48 -69 -27
-83 22 -15 28 -7 22 27 -4 19 -4 35 -1 35 15 0 32 -26 28 -45 -3 -16 -2 -16 7
3 9 21 11 22 26 8 8 -9 20 -14 25 -10 5 3 -1 14 -13 24 -22 18 -22 19 -4 26
19 7 19 8 0 15 -16 6 -15 8 9 8 17 1 27 -4 27 -14 0 -8 9 -19 20 -25 17 -9 20
-8 20 11 0 12 10 30 22 41 23 19 23 19 31 -6 5 -14 15 -26 22 -26 7 0 22 -3
32 -6 11 -3 14 -2 7 3 -18 14 -25 43 -10 43 8 0 16 -4 18 -8 2 -5 17 -12 34
-15 26 -5 33 -2 42 18 8 17 16 23 28 18 16 -6 16 -7 -2 -14 -13 -5 -8 -7 19
-7 27 1 37 6 37 18 0 19 19 40 37 40 7 0 13 -7 13 -15 0 -23 41 -19 47 5 5 20
33 29 33 10 0 -22 40 -9 46 15 7 27 19 32 31 13 11 -18 43 -19 43 -1 0 8 8 13
18 12 32 -3 42 1 42 17 0 12 7 14 28 10 22 -5 29 -2 37 16 12 26 35 36 35 14
0 -23 37 -20 52 4 15 24 28 26 28 5 0 -13 7 -15 38 -9 51 9 53 14 6 15 -31 0
-35 2 -19 9 16 7 13 9 -16 9 -21 1 -42 -5 -49 -14 -14 -17 -30 -20 -30 -5 0 6
3 9 8 8 4 -2 18 5 32 15 27 19 16 23 -14 5z"/>
<path d="M5220 12647 c-101 -34 -149 -80 -200 -189 -41 -88 -49 -158 -65 -533
-14 -352 -19 -382 -71 -450 -35 -46 -110 -83 -204 -99 -98 -18 -431 -99 -529
-130 -47 -14 -97 -26 -113 -26 l-28 0 22 -47 c12 -27 33 -62 45 -80 13 -17 23
-34 23 -36 0 -3 -25 -8 -55 -12 -105 -13 -56 -25 100 -25 l155 0 0 49 c0 48
-1 49 -34 55 -19 4 -37 13 -40 22 -3 8 -10 13 -15 9 -14 -8 -21 8 -11 24 4 8
31 16 59 19 32 3 51 9 51 17 0 19 56 50 113 64 50 12 86 7 99 -13 5 -7 17 -5
38 7 72 43 86 47 168 47 106 0 142 16 181 81 38 60 48 124 60 349 5 96 12 183
16 193 4 10 18 17 34 17 15 0 32 5 38 11 8 8 19 6 41 -5 43 -22 49 -20 22 9
-13 14 -29 25 -37 25 -7 0 -13 9 -13 20 0 29 47 22 75 -12 13 -16 30 -28 39
-28 8 0 16 -5 18 -11 6 -17 45 -1 51 21 3 11 -4 26 -17 37 -53 45 -105 83
-114 83 -6 0 -25 15 -43 32 -18 18 -42 38 -53 43 -18 9 -21 20 -21 66 0 35 7
65 18 82 l17 26 46 -19 c56 -24 54 -24 54 0 0 11 7 23 15 26 19 8 45 -19 45
-46 0 -16 4 -20 16 -16 9 3 21 6 28 6 11 0 15 47 7 82 0 3 -16 11 -33 17 -29
9 -31 9 -15 -3 16 -12 14 -14 -19 -19 -54 -9 -68 9 -48 65 31 90 106 137 216
138 37 0 69 4 72 9 3 5 -8 23 -26 40 -39 38 -84 40 -178 8z"/>
<path d="M9776 12598 c-9 -12 -16 -30 -16 -39 0 -10 -11 -19 -29 -22 -38 -8
-71 -44 -71 -78 0 -43 -50 -89 -97 -89 -37 0 -39 -2 -70 -68 -51 -104 -92
-175 -118 -199 -17 -16 -22 -30 -19 -49 3 -15 0 -30 -7 -34 -6 -4 -13 -27 -15
-51 -2 -24 -8 -45 -14 -47 -5 -2 -10 -20 -10 -41 0 -20 -7 -46 -15 -58 -14
-19 -13 -21 18 -28 44 -11 327 -13 462 -3 61 4 191 12 290 17 129 8 183 15
193 25 28 28 -14 146 -52 146 -13 0 -26 50 -26 103 0 29 -4 32 -60 41 -44 7
-69 53 -53 95 11 30 5 101 -8 101 -5 0 -9 8 -9 18 0 18 -56 111 -68 113 -4 1
-22 3 -41 5 -53 4 -77 22 -91 68 -16 48 -41 96 -52 96 -4 0 -14 -10 -22 -22z"/>
<path d="M6578 12149 c-10 -5 -18 -16 -18 -24 0 -9 -6 -12 -15 -9 -11 5 -13 2
-9 -10 3 -9 1 -16 -6 -16 -6 0 -8 -4 -5 -10 3 -5 1 -10 -5 -10 -7 0 -7 -7 1
-22 9 -16 9 -23 1 -26 -7 -2 -2 -16 13 -36 29 -38 31 -48 9 -39 -14 5 -14 3
-2 -17 10 -18 10 -24 1 -27 -18 -6 -16 -23 1 -23 8 0 18 -5 21 -10 4 -6 1 -9
-7 -8 -8 2 -12 -5 -10 -21 2 -15 0 -21 -7 -17 -7 4 -11 -1 -11 -13 0 -26 17
-36 23 -14 4 14 5 13 6 -4 0 -13 -5 -23 -11 -23 -9 0 -10 -3 -2 -8 6 -4 14
-24 18 -44 4 -21 11 -38 15 -38 15 0 61 41 61 55 0 33 71 46 101 19 16 -14 19
-14 34 10 10 14 21 26 26 26 23 0 4 -52 -51 -137 -63 -99 -67 -111 -47 -132
10 -11 10 -13 0 -7 -9 5 -13 1 -13 -11 0 -10 -13 -27 -30 -36 -16 -10 -38 -30
-49 -45 -24 -34 -37 -97 -22 -106 6 -4 11 -1 11 7 0 25 31 77 46 77 8 0 14 -4
14 -8 0 -10 35 -52 43 -52 3 0 14 16 26 36 23 39 27 74 9 92 -9 9 -7 23 9 59
12 27 34 90 50 141 15 50 33 92 38 92 6 0 19 -16 28 -35 20 -43 21 -48 5 -39
-10 6 -10 4 0 -7 6 -7 13 -22 13 -33 1 -18 2 -18 6 -3 9 35 21 6 12 -30 -11
-49 -11 -89 1 -51 4 14 11 31 14 37 12 19 70 -10 126 -64 39 -38 79 -63 139
-89 119 -51 190 -105 392 -300 197 -190 253 -241 243 -223 -5 9 -52 60 -104
115 -52 54 -121 125 -152 158 -76 80 -134 133 -188 174 -25 19 -83 71 -131
115 -47 44 -94 87 -105 96 -42 35 -102 109 -159 196 -33 51 -68 95 -77 98 -29
10 -21 34 15 44 31 9 31 9 5 10 -15 1 -29 -3 -33 -9 -13 -22 -98 41 -93 70 3
20 -85 155 -107 164 -25 9 -88 7 -107 -5z"/>
<path d="M12680 11708 c-102 -4 -259 -13 -350 -19 -91 -7 -216 -12 -279 -11
-63 2 -128 -2 -145 -8 -17 -5 -168 -15 -336 -20 -437 -16 -720 -28 -915 -40
-93 -5 -204 -11 -245 -13 -41 -2 -174 -9 -295 -15 -121 -6 -278 -14 -350 -17
-71 -2 -249 -12 -395 -22 -251 -16 -448 -19 -498 -8 -34 8 -49 -33 -31 -82 15
-38 15 -38 72 -38 l58 0 10 37 c5 20 14 40 18 43 5 3 49 8 97 11 48 3 90 6 93
6 3 1 26 -4 50 -11 50 -14 180 -2 264 25 45 15 49 15 82 -5 39 -23 165 -122
166 -130 0 -3 2 -14 4 -23 2 -9 -3 -22 -11 -29 -16 -13 -19 -55 -4 -64 6 -4 8
-16 4 -27 -5 -17 4 -31 41 -65 26 -23 53 -43 60 -43 7 0 27 -18 46 -40 39 -46
69 -53 69 -16 0 14 5 28 10 31 15 10 142 7 149 -2 21 -29 121 -64 121 -42 0 5
9 9 20 9 13 0 20 7 20 20 0 11 5 20 10 20 23 0 50 41 50 76 0 21 -8 47 -20 61
-22 28 -26 76 -10 119 8 21 7 35 -6 61 -16 36 -12 83 8 83 6 0 19 6 27 14 31
27 118 44 251 51 135 7 364 17 770 34 314 14 682 30 780 35 47 3 162 7 255 11
94 3 206 8 250 10 44 3 143 7 220 10 180 7 255 15 255 26 0 10 -130 9 -440 -3z"/>
<path d="M4535 11015 c2 -66 14 -174 25 -240 12 -66 27 -160 35 -210 8 -49 28
-151 44 -225 17 -74 39 -182 48 -239 l18 -104 50 -23 c58 -26 167 -49 278 -59
42 -4 77 -8 77 -9 0 -1 -5 -17 -10 -36 -12 -41 -2 -219 11 -198 5 7 9 11 10 8
0 -3 2 -15 5 -28 2 -14 0 -21 -6 -17 -5 3 -10 2 -10 -2 0 -5 9 -14 20 -21 17
-10 20 -10 21 5 0 13 3 11 11 -7 10 -24 10 -24 18 -5 5 11 9 15 9 8 1 -17 81
18 81 36 0 8 6 11 15 7 19 -7 19 13 0 38 -8 11 -15 27 -15 35 1 12 3 11 12 -4
13 -22 34 -45 41 -45 7 0 3 22 -6 38 -5 7 -4 12 2 12 6 0 11 -4 11 -10 0 -5 7
-10 15 -10 19 0 19 4 -1 38 l-16 27 20 -23 21 -23 21 21 c11 11 20 25 20 30 0
6 6 10 13 10 8 0 19 10 25 23 8 16 11 17 11 6 1 -9 8 -22 16 -29 9 -7 13 -20
10 -27 -3 -9 0 -13 7 -11 7 3 21 -6 31 -19 10 -13 23 -23 29 -23 5 0 -2 14
-16 31 -29 34 -25 60 5 33 10 -9 16 -21 13 -25 -3 -5 2 -6 10 -3 22 9 20 16
-14 51 -20 20 -27 34 -20 38 11 7 39 -21 40 -37 0 -5 7 -8 16 -8 10 0 14 -5
10 -16 -3 -8 -2 -12 3 -9 6 3 23 -13 38 -36 23 -32 36 -42 61 -44 24 -2 33 2
38 19 l7 21 8 -23 c9 -24 16 -26 38 -13 11 7 10 12 -5 28 -50 51 -86 105 -77
114 13 13 66 -48 59 -67 -3 -7 1 -17 8 -21 7 -5 18 -18 25 -30 6 -13 16 -23
22 -23 6 0 7 5 3 11 -4 8 3 9 25 4 25 -5 31 -3 31 10 0 15 2 15 16 4 14 -11
18 -11 29 4 8 12 15 14 20 8 11 -19 25 -12 25 12 1 22 1 22 16 2 14 -18 16
-19 25 -3 5 9 16 15 23 12 9 -3 17 5 23 23 10 27 10 27 17 6 8 -25 21 -30 31
-12 4 6 13 8 21 5 8 -3 14 -1 14 4 0 6 8 10 17 10 18 0 93 77 93 96 0 6 6 17
14 24 8 6 16 21 18 33 2 12 6 20 9 17 3 -3 12 0 20 6 12 10 47 21 71 24 4 0
22 14 40 30 18 17 36 30 40 30 9 0 87 80 108 111 8 12 25 33 37 47 12 13 25
32 28 42 3 10 12 21 20 24 8 3 15 12 15 20 0 24 59 79 85 79 17 0 25 5 25 17
0 16 -10 15 -87 -17 -48 -19 -117 -50 -155 -69 -37 -19 -68 -30 -68 -25 0 5
17 18 38 28 21 10 36 24 34 32 -3 12 0 12 12 1 13 -10 16 -10 16 3 0 10 6 14
15 11 10 -4 15 0 15 11 0 11 5 15 15 11 8 -3 15 0 15 5 0 6 9 9 20 6 13 -3 20
0 20 9 0 8 9 14 20 14 18 0 26 17 20 45 -1 6 2 7 6 3 4 -5 21 16 37 45 16 28
33 54 36 57 4 3 18 26 31 52 17 32 21 51 15 57 -7 7 -24 -10 -53 -52 -60 -89
-211 -235 -316 -306 -49 -34 -92 -59 -95 -56 -2 3 4 12 15 19 10 8 30 24 44
36 21 19 18 18 -20 -4 -60 -36 -119 -63 -152 -71 -27 -7 -28 -6 -28 31 0 22 7
48 15 58 8 11 15 29 14 40 0 20 -1 20 -9 -1 -5 -13 -14 -23 -19 -23 -5 0 -7
10 -5 23 3 12 -11 -10 -30 -49 -41 -87 -93 -141 -169 -177 -75 -35 -85 -34
-21 2 51 30 114 92 114 113 0 7 -8 2 -17 -11 -37 -49 -63 -67 -150 -104 -49
-21 -95 -39 -103 -41 -8 -2 -28 -8 -44 -15 -16 -6 -31 -10 -33 -8 -3 4 53 31
67 32 20 2 111 38 115 46 8 12 4 11 -36 -5 -61 -24 -82 -29 -74 -16 5 8 -3 7
-21 -3 -16 -8 -45 -15 -65 -15 -20 -1 -48 -6 -63 -12 -15 -5 -43 -10 -62 -10
-19 0 -34 -5 -34 -11 0 -5 -10 -3 -22 5 -12 9 -32 16 -45 16 -12 0 -25 5 -28
10 -3 6 -15 10 -26 10 -10 0 -19 5 -19 11 0 6 -6 9 -14 6 -8 -3 -25 4 -38 17
-13 12 -38 31 -55 41 -39 23 -39 26 -13 79 22 46 97 97 228 156 96 44 114 73
91 153 -11 42 -24 48 -33 15 -8 -33 -59 -63 -214 -128 -75 -32 -179 -76 -230
-99 -174 -77 -231 -76 -300 7 -42 50 -139 201 -194 301 -30 55 -36 61 -65 61
-18 0 -33 5 -33 11 0 7 10 9 25 5 18 -5 25 -2 25 7 0 20 -39 67 -56 67 -22 0
-16 17 9 24 21 6 21 7 -8 21 -16 8 -21 13 -10 10 18 -4 20 0 20 49 0 75 15 96
101 136 41 19 74 38 74 41 0 12 -44 18 -56 9 -6 -6 -26 -7 -44 -3 -26 5 -32 3
-28 -8 4 -11 -5 -13 -48 -11 -38 3 -54 8 -58 20 -3 10 -3 -37 -1 -103z m194
-521 c17 -55 53 -137 90 -205 103 -185 163 -301 158 -305 -12 -13 -76 29 -91
59 -8 19 -36 50 -61 68 -24 19 -47 42 -50 52 -4 9 -13 17 -20 17 -20 0 -41 37
-50 85 -3 22 -24 112 -46 199 -21 88 -39 166 -39 174 0 10 14 3 41 -19 37 -30
45 -46 68 -125z m1701 -240 c0 -10 -6 -14 -15 -10 -8 3 -15 2 -15 -3 0 -4 -33
-22 -72 -41 -40 -18 -120 -55 -177 -82 -57 -26 -105 -48 -107 -48 -2 0 -33
-14 -70 -31 -37 -16 -80 -33 -95 -36 -16 -3 -34 -12 -40 -19 -6 -8 -15 -14
-19 -14 -5 0 -20 -10 -33 -22 l-25 -22 21 -30 21 -29 -26 6 c-15 4 -34 10 -45
13 -12 4 -8 -4 12 -23 17 -15 25 -24 18 -19 -8 5 -13 4 -13 -3 0 -6 -9 -2 -20
9 -23 23 -49 28 -31 6 24 -28 -10 -29 -40 0 -20 19 -29 23 -29 13 0 -9 15 -28
34 -43 23 -18 33 -33 29 -43 -5 -12 -3 -14 7 -8 9 6 11 4 6 -4 -6 -8 -19 0
-43 28 -19 23 -41 41 -49 41 -11 0 -14 6 -9 23 3 12 3 18 -2 12 -5 -5 -12 -13
-16 -16 -6 -5 3 -17 60 -80 19 -21 22 -29 11 -35 -7 -4 -10 -4 -6 0 4 4 -15
27 -41 50 -26 23 -46 47 -43 54 3 11 -28 17 -70 13 -10 -1 -18 2 -18 7 0 13
37 30 99 45 31 8 49 17 40 20 -7 3 3 6 25 6 28 1 37 5 33 15 -4 10 0 12 15 8
14 -3 19 -1 14 6 -8 14 54 43 154 71 128 36 150 44 150 51 0 4 6 8 13 7 6 0
23 1 37 2 20 1 22 3 10 11 -12 8 -9 10 13 10 15 0 27 4 27 9 0 5 14 12 30 16
17 4 30 10 30 15 0 5 10 10 23 12 12 2 21 9 19 17 -3 12 0 12 12 1 11 -8 16
-9 16 -1 0 6 8 10 18 9 9 -1 26 0 37 1 17 3 17 4 -5 11 -22 7 -20 8 15 9 26 1
35 4 27 10 -10 6 -9 10 7 14 12 3 19 1 15 -4 -8 -14 3 -11 38 11 40 24 38 24
38 4z"/>
<path d="M4371 10980 c-1 -165 17 -355 54 -580 l26 -156 90 -93 c50 -51 93
-90 96 -87 5 5 -12 98 -44 238 -8 38 -22 75 -29 83 -8 7 -11 20 -8 28 3 9 -3
20 -15 26 -12 7 -18 17 -15 26 4 8 1 15 -5 15 -22 0 -26 4 -36 34 -6 17 -16
30 -22 29 -12 -3 -63 192 -63 239 0 14 8 32 18 42 18 15 21 15 47 -5 l27 -22
-7 44 c-5 24 -8 50 -8 57 0 6 -7 12 -16 12 -11 0 -12 3 -4 11 9 9 8 19 -3 42
-11 21 -13 32 -5 36 8 5 7 13 -4 27 -14 18 -14 18 -8 -3 3 -13 3 -23 0 -23 -9
0 -48 68 -57 98 -5 17 -9 -25 -9 -118z"/>
<path d="M5113 10783 c-46 -6 -83 -53 -83 -105 0 -32 6 -45 33 -69 17 -16 48
-45 67 -64 43 -43 66 -45 75 -7 4 21 15 32 40 41 34 12 40 20 36 50 -2 7 2 11
6 8 15 -10 14 64 -1 88 -12 19 -60 40 -127 58 -7 2 -28 2 -46 0z"/>
<path d="M10972 10745 c-18 -19 -32 -39 -32 -45 0 -11 -40 -15 -103 -11 -50 3
-59 -20 -21 -60 32 -34 81 -40 91 -11 14 37 30 44 68 31 19 -7 35 -16 35 -19
0 -14 53 -30 95 -30 24 0 56 -5 71 -11 44 -16 200 -13 236 6 17 8 37 15 44 15
15 0 22 19 16 43 -5 19 -32 23 -50 5 -9 -9 -20 -7 -46 7 -28 15 -39 17 -58 8
-47 -23 -77 -24 -98 -3 -11 11 -20 23 -20 28 -1 16 -110 72 -152 77 -41 5 -47
3 -76 -30z"/>
<path d="M4033 10660 c1 -19 6 -28 15 -25 6 2 12 -2 12 -9 0 -8 -6 -16 -12
-19 -8 -2 1 -12 19 -23 18 -11 33 -24 33 -30 0 -7 14 -14 30 -16 26 -4 30 -1
30 19 0 13 4 23 10 23 14 0 84 -33 91 -44 4 -5 12 -5 18 -2 6 4 11 0 11 -8 0
-18 -26 -22 -32 -5 -2 7 -23 -5 -46 -27 l-42 -39 27 -30 c25 -28 27 -36 23
-84 -7 -64 8 -91 51 -91 16 0 29 4 29 8 0 4 16 6 35 4 23 -3 35 0 35 8 0 7 -8
10 -20 7 -11 -3 -23 -1 -26 4 -3 5 -10 7 -15 4 -5 -4 -9 14 -9 39 0 42 2 46
24 46 14 0 27 3 29 8 3 4 -2 49 -11 101 -14 87 -18 97 -54 133 -22 22 -38 32
-38 24 0 -19 -60 -14 -92 8 -12 9 -30 16 -39 16 -10 0 -19 5 -21 11 -2 7 -18
13 -36 15 -29 4 -31 2 -29 -26z"/>
<path d="M7305 10615 c-69 -26 -226 -90 -270 -109 -16 -7 -51 -19 -78 -26 -26
-7 -50 -17 -53 -21 -3 -5 -12 -9 -21 -9 -19 0 -57 -31 -62 -50 -2 -8 -6 -23
-8 -32 -3 -10 0 -18 6 -18 6 0 11 5 11 12 0 9 3 9 11 1 13 -13 81 -5 91 11 6
8 8 8 8 -1 0 -6 7 -19 16 -28 15 -15 18 -12 40 33 14 29 34 54 51 62 15 8 36
21 46 29 9 8 17 11 17 8 0 -3 12 5 26 18 15 14 31 25 37 25 6 0 24 10 41 23
17 13 51 33 76 44 40 19 93 53 80 52 -3 0 -32 -11 -65 -24z"/>
<path d="M12080 9488 c0 -4 -17 -8 -37 -8 -42 -1 -120 -36 -137 -63 -8 -13 -7
-21 7 -34 15 -15 40 -19 151 -21 161 -5 174 0 170 59 -4 58 -21 72 -94 74 -33
1 -60 -2 -60 -7z"/>
<path d="M9601 4474 c-19 -19 -22 -27 -12 -37 6 -6 19 -12 29 -12 18 0 19 -10
8 -69 -6 -31 -4 -34 22 -39 36 -7 37 -41 4 -79 -24 -27 -24 -27 -51 -8 -14 10
-44 20 -66 22 -32 3 -41 8 -43 26 -2 12 -8 22 -13 22 -13 0 -11 -44 2 -57 8
-8 7 -13 -1 -18 -15 -9 -30 13 -23 32 3 7 0 13 -7 13 -7 0 -9 8 -5 20 5 15 1
22 -17 29 -22 8 -21 9 12 15 41 7 73 4 81 -7 3 -5 9 1 12 13 7 27 -5 31 -72
27 -45 -2 -55 0 -59 15 -2 10 -9 18 -16 19 -6 0 -2 5 9 10 16 7 14 8 -13 6
-29 -3 -33 -1 -28 17 5 20 -9 46 -25 46 -5 0 -6 -7 -3 -15 4 -8 1 -15 -5 -15
-6 0 -11 5 -11 10 0 11 -62 13 -98 4 -27 -8 -24 -28 4 -30 10 -1 25 -2 32 -3
15 -1 16 -28 0 -33 -8 -3 -4 -12 10 -26 12 -12 19 -28 16 -37 -9 -24 -24 -18
-24 10 0 14 -5 25 -11 25 -7 0 -9 -10 -7 -25 5 -23 2 -25 -28 -25 -30 0 -34
-3 -34 -25 0 -28 25 -44 42 -27 7 7 17 8 29 2 11 -6 20 -6 23 -1 3 5 15 7 26
4 21 -5 28 11 10 22 -5 3 -10 10 -10 14 0 13 59 35 68 26 4 -4 1 -10 -5 -12
-20 -7 -15 -61 7 -83 11 -11 23 -32 26 -46 6 -24 5 -26 -15 -21 -11 3 -21 1
-21 -4 0 -5 5 -9 11 -9 5 0 16 -15 24 -34 8 -19 20 -38 27 -42 8 -5 4 -10 -10
-15 -15 -6 -22 -17 -22 -34 0 -30 16 -33 25 -5 3 11 13 20 20 20 9 0 12 -6 9
-15 -4 -10 0 -15 11 -15 9 0 13 -5 10 -10 -4 -6 -10 -8 -15 -5 -16 10 -29 -19
-15 -38 10 -14 14 -15 19 -5 3 7 5 -1 4 -17 -1 -17 1 -36 5 -43 5 -6 5 -17 1
-24 -5 -8 -10 -6 -15 8 -7 18 -8 18 -14 -3 -7 -23 -38 -39 -55 -28 -5 3 -10 2
-10 -3 0 -15 41 -22 63 -10 14 7 26 7 43 -2 12 -7 30 -10 38 -7 12 5 16 0 16
-18 0 -14 -4 -24 -9 -23 -5 2 -9 -1 -10 -7 0 -5 7 -10 16 -10 9 0 18 -6 21
-13 2 -6 8 -10 12 -7 5 3 7 12 4 20 -6 15 33 41 44 29 4 -4 1 -9 -5 -11 -7 -3
-13 -9 -13 -15 0 -6 8 -7 18 -3 13 5 14 3 5 -6 -6 -6 -9 -18 -5 -27 4 -12 1
-14 -12 -9 -29 11 -97 -13 -91 -32 2 -9 0 -23 -5 -31 -8 -13 -14 -13 -42 -1
-18 7 -41 14 -50 14 -10 1 -18 7 -18 14 0 7 -11 20 -25 29 -14 9 -25 23 -25
30 0 8 -5 14 -10 14 -6 0 -8 10 -4 24 3 15 -1 29 -11 40 -16 16 -16 18 1 31
11 8 22 15 27 15 9 0 10 30 1 30 -4 0 -12 -8 -19 -17 -12 -16 -14 -16 -39 0
-15 10 -24 22 -21 26 2 5 -1 14 -9 20 -20 17 -19 88 2 95 9 3 1 4 -19 2 -35
-4 -59 7 -59 27 0 5 8 7 18 5 10 -2 22 6 30 21 10 20 10 28 -5 50 -9 14 -16
33 -15 42 2 9 -6 19 -18 22 -13 3 -20 13 -20 29 0 32 -45 38 -53 6 -5 -18 -8
-19 -22 -8 -14 12 -14 14 0 30 12 13 13 20 5 25 -7 4 -9 18 -5 32 3 15 2 22
-4 19 -5 -4 -12 -2 -16 4 -3 5 1 10 9 10 9 0 16 4 16 9 0 5 -17 5 -40 0 -22
-5 -111 -8 -198 -7 l-157 3 -3 -77 c-2 -49 -8 -80 -16 -88 -14 -11 -187 -44
-293 -55 -32 -3 -85 -10 -118 -15 -93 -15 -116 -13 -122 10 -5 18 -14 20 -74
20 -67 0 -278 -37 -356 -63 -33 -10 -38 -17 -41 -46 l-3 -33 -52 7 c-29 4 -77
8 -107 9 -50 1 -55 -1 -58 -21 -5 -31 -42 -39 -112 -25 -80 17 -101 15 -154
-13 -26 -14 -57 -25 -70 -25 -22 0 -24 -5 -31 -92 -9 -114 -28 -98 -23 18 l3
75 -55 -3 -55 -3 -3 -75 c-2 -41 -7 -77 -12 -80 -4 -3 -12 -21 -17 -40 -12
-44 -18 -45 -150 -10 -36 9 -43 15 -43 35 0 30 -18 32 -53 5 -27 -22 -47 -26
-47 -10 0 6 5 10 10 10 6 0 10 5 10 12 0 6 -3 9 -6 6 -3 -3 -27 0 -55 7 -27 7
-116 18 -197 24 -81 7 -172 15 -202 19 -30 4 -69 6 -87 4 l-32 -3 4 -56 c3
-39 11 -65 30 -88 14 -19 25 -40 26 -47 0 -7 5 -3 11 10 7 13 18 21 27 18 9
-3 50 -7 91 -11 41 -3 95 -10 120 -15 54 -12 276 -41 340 -44 25 -2 55 -6 66
-10 17 -5 26 0 43 26 l20 33 -2 -32 c-1 -17 -5 -29 -9 -26 -5 2 -8 0 -8 -5 0
-14 98 -41 165 -45 84 -6 252 19 293 43 30 18 33 19 30 3 -4 -22 -75 -63 -110
-63 -15 0 -30 -5 -34 -11 -4 -8 3 -9 25 -4 19 4 31 3 31 -3 0 -6 -8 -12 -17
-14 -12 -3 -4 -9 21 -17 37 -13 41 -13 54 8 17 24 52 27 147 11 73 -13 355
-50 364 -48 3 1 26 -2 51 -5 25 -4 65 -9 90 -11 76 -6 220 -29 220 -35 0 -3
28 -7 63 -8 34 -1 78 -6 97 -12 51 -15 354 -57 475 -65 81 -6 237 -37 254 -50
8 -6 48 -11 90 -11 85 -1 326 -27 326 -35 0 -1 21 -3 47 -5 48 -4 69 8 49 28
-8 8 -11 8 -11 -1 0 -7 -7 -12 -16 -12 -14 0 -15 2 -3 17 12 15 12 16 -3 10
-14 -5 -18 -1 -18 18 0 21 -7 25 -62 39 l-63 15 60 -1 c84 -1 85 -1 85 25 0
16 -3 18 -9 9 -7 -11 -13 -9 -29 8 -17 19 -43 25 -154 40 -73 10 -198 28 -278
40 -80 12 -163 23 -185 25 -22 2 -80 11 -130 20 -49 9 -115 18 -145 20 -30 3
-77 10 -105 16 -27 6 -65 10 -84 10 -19 -1 -55 3 -80 8 -97 21 -203 31 -216
21 -9 -8 -14 -7 -18 3 -3 9 -31 17 -74 22 -99 10 -118 13 -223 30 -52 8 -111
17 -130 20 -19 2 -71 9 -115 15 -44 6 -109 14 -145 18 -74 8 -71 2 -50 110 10
53 17 65 37 73 14 5 28 7 32 5 3 -3 31 -7 61 -10 30 -3 67 -8 82 -11 15 -3 54
-7 85 -9 67 -5 124 -16 138 -26 6 -4 57 -10 115 -14 58 -3 121 -9 140 -11 19
-3 46 -6 60 -6 14 0 41 -5 60 -11 19 -7 60 -13 90 -14 30 -1 105 -9 165 -18
218 -32 311 -45 370 -51 33 -3 96 -12 140 -20 44 -8 104 -16 133 -19 30 -3 57
-8 61 -10 4 -3 55 -7 114 -11 84 -5 107 -3 107 7 0 9 3 9 10 -2 7 -12 13 -13
28 -3 13 7 32 9 56 3 20 -4 36 -6 36 -3 0 3 6 0 13 -6 8 -6 16 -9 19 -6 3 3
11 -1 18 -10 7 -8 20 -15 29 -14 10 0 11 2 4 6 -7 2 -13 9 -13 15 0 15 43 -2
58 -23 16 -23 48 -25 60 -2 8 14 11 13 17 -7 6 -20 12 -22 50 -18 23 3 50 1
59 -4 23 -13 126 -20 126 -8 0 6 7 10 16 10 10 0 14 6 10 15 -4 11 1 15 18 15
14 0 26 -4 28 -8 2 -5 15 -12 31 -16 26 -6 27 -5 27 29 0 21 -5 35 -12 36 -7
0 -21 2 -31 4 -10 2 -14 -1 -11 -7 4 -6 0 -14 -7 -19 -15 -10 -36 -12 -27 -3
3 3 -10 21 -30 40 -33 32 -35 36 -19 51 16 16 17 16 17 0 0 -10 5 -15 10 -12
6 3 7 17 4 31 -4 17 -2 24 8 24 24 0 27 -10 12 -38 -16 -32 -5 -41 46 -38 19
1 41 -2 48 -7 7 -6 17 -5 27 3 11 9 23 9 43 2 16 -5 35 -6 42 -2 7 4 31 6 53
4 35 -3 44 0 73 32 19 19 34 38 34 42 -1 18 -22 37 -42 37 -21 0 -23 5 -23 48
0 43 -2 47 -23 47 -18 0 -23 4 -18 15 3 9 -1 18 -9 21 -8 4 -12 10 -9 15 10
17 -19 9 -32 -8 -8 -11 -13 -13 -14 -5 0 7 -14 12 -34 12 -37 0 -57 16 -32 26
14 5 14 8 -1 30 -8 13 -22 24 -29 24 -8 0 -15 5 -15 10 -1 6 -2 14 -3 19 0 5
-4 13 -8 17 -15 15 -8 34 13 34 17 0 19 3 10 14 -9 10 -8 16 4 26 16 13 11 30
-9 30 -7 0 -21 -8 -32 -17 -51 -46 -50 -46 -75 -12 l-22 32 23 19 24 20 -38
-8 c-41 -7 -40 -9 -21 39 3 8 -7 17 -27 25 -18 6 -42 25 -53 42 -11 17 -28 33
-38 36 -10 3 -22 17 -28 31 -12 32 -12 33 9 34 10 0 12 3 5 6 -7 2 -13 13 -13
23 0 18 -26 30 -66 30 -25 0 -37 23 -21 39 8 8 2 11 -23 10 -23 -1 -44 -10
-59 -25z"/>
<path d="M5040 3595 c-19 -13 -40 -29 -47 -35 -7 -5 -17 -10 -22 -10 -6 0 -20
-13 -32 -30 -12 -16 -26 -27 -30 -24 -5 3 -14 -4 -21 -16 -7 -11 -18 -20 -25
-20 -16 0 -17 -12 -1 -28 10 -10 6 -12 -22 -10 -23 2 -34 -1 -33 -9 2 -7 -3
-10 -10 -8 -12 5 -87 -50 -87 -64 0 -4 10 -13 23 -19 19 -10 18 -11 -13 -6
-29 4 -46 -1 -93 -32 -61 -39 -73 -64 -32 -64 18 0 25 5 25 19 0 14 9 21 31
26 44 10 45 1 5 -25 -39 -23 -45 -37 -21 -46 23 -9 7 -25 -19 -18 -18 4 -28
-1 -45 -24 -28 -40 -27 -48 6 -27 24 16 27 16 38 1 17 -23 25 -20 25 9 0 14 5
25 10 25 6 0 10 -4 10 -10 0 -5 7 -10 15 -10 8 0 15 7 15 15 0 8 7 15 15 15 8
0 15 -7 15 -15 0 -8 5 -15 11 -15 5 0 7 -4 4 -10 -8 -12 40 -24 57 -14 7 5 21
7 32 5 11 -1 16 2 12 8 -4 6 -2 11 3 11 6 0 11 -8 11 -18 0 -27 11 -34 28 -19
13 10 15 9 9 -7 -6 -15 -4 -17 17 -12 14 3 28 1 31 -4 4 -6 12 -10 18 -9 20 3
46 -12 41 -24 -3 -8 11 -12 43 -13 27 0 38 1 26 3 -13 3 -23 11 -23 19 0 9
-11 14 -31 14 -26 0 -29 3 -20 14 6 7 26 17 44 20 29 6 30 8 13 18 -17 10 -17
12 12 24 17 7 40 10 51 7 16 -4 21 1 26 23 20 90 53 141 151 234 37 36 88 85
113 109 l46 44 -32 9 c-19 5 -33 15 -33 23 0 22 -18 18 -25 -6 l-7 -21 -15 22
c-11 15 -18 18 -27 11 -7 -6 -15 -9 -17 -6 -3 2 -45 6 -94 8 -50 3 -97 7 -105
10 -8 3 -31 -5 -50 -18z"/>
<path d="M6135 3429 c8 -64 -12 -131 -41 -139 -14 -4 -20 -16 -22 -50 -2 -25
-12 -78 -24 -117 -17 -58 -18 -76 -8 -88 33 -40 26 -183 -10 -192 -14 -4 -18
-17 -19 -59 0 -30 -8 -87 -16 -126 -13 -64 -13 -75 0 -95 16 -23 21 -130 7
-148 -4 -5 -24 -18 -44 -29 -35 -18 -63 -51 -33 -40 10 4 12 -2 5 -33 -13 -56
-13 -226 -2 -318 11 -83 36 -161 71 -221 30 -51 27 -83 -14 -126 -46 -48 -76
-54 -150 -27 -55 19 -188 56 -290 80 -21 6 -44 14 -51 19 -6 6 -13 7 -16 4
-10 -9 -92 29 -157 73 -36 24 -71 41 -79 38 -7 -3 -18 -5 -22 -5 -5 0 -1 -13
8 -30 9 -16 24 -30 33 -30 9 0 22 -7 29 -15 6 -8 22 -17 33 -21 12 -4 40 -15
62 -24 39 -18 135 -54 145 -55 52 -7 150 -30 150 -35 0 -4 27 -10 60 -14 33
-4 60 -12 60 -17 0 -6 5 -7 10 -4 6 3 10 -1 10 -9 0 -12 5 -13 30 -4 17 5 45
8 63 5 34 -5 98 25 131 62 16 17 16 23 3 68 -10 32 -11 56 -5 72 4 13 10 36
12 50 2 14 8 39 15 54 6 16 11 31 11 34 0 4 9 27 21 52 14 32 35 55 66 76 26
17 48 37 49 45 1 8 5 22 9 31 3 10 2 20 -4 23 -11 7 6 56 19 56 4 0 17 23 31
52 13 29 39 67 58 86 28 29 33 39 28 68 -5 29 -1 40 29 72 18 20 34 44 34 53
0 9 18 30 39 47 39 31 39 31 46 124 4 61 15 112 30 148 72 174 100 233 120
253 17 17 24 39 29 92 3 39 10 94 14 123 9 58 8 60 -44 66 -16 2 -29 5 -29 6
0 1 -15 2 -33 3 -25 2 -37 -4 -49 -23 -9 -14 -22 -29 -28 -35 -6 -5 -29 -32
-50 -58 -25 -32 -41 -45 -48 -38 -7 7 3 28 29 63 22 29 50 67 61 84 l22 30
-31 -2 c-41 -3 -165 15 -197 28 -14 7 -52 13 -84 14 -32 2 -65 8 -73 15 -13
10 -14 4 -9 -42z"/>
<path d="M7331 3276 c-14 -8 -30 -12 -35 -10 -19 6 -64 -116 -69 -183 -2 -35
0 -63 5 -63 4 0 8 20 8 44 0 53 10 62 41 37 19 -16 24 -30 27 -90 3 -52 0 -80
-12 -105 -11 -22 -18 -72 -20 -143 -3 -69 -2 -94 3 -68 5 23 9 30 10 18 1 -16
7 -23 21 -23 13 0 22 -9 26 -27 13 -64 62 -239 74 -268 8 -19 9 -19 9 2 1 21
31 83 41 83 12 0 3 72 -10 80 -11 7 -12 12 -4 18 6 4 21 27 32 52 11 25 32 54
46 64 14 10 26 25 26 32 0 17 17 18 23 2 3 -10 9 -10 30 1 20 11 32 11 58 2
22 -8 36 -8 43 -1 5 5 22 10 37 10 23 0 26 -3 22 -22 -5 -20 -2 -19 27 10 18
17 36 33 41 33 13 2 29 6 32 9 1 1 12 3 25 4 14 2 22 -3 23 -13 0 -10 2 -12 6
-3 9 22 33 13 33 -12 0 -30 14 -40 37 -27 10 6 14 11 9 11 -5 0 -3 7 4 15 8
10 17 12 24 6 14 -11 136 8 136 22 0 5 -13 7 -30 4 -19 -4 -30 -2 -30 5 0 7
15 9 45 5 41 -6 45 -5 45 15 0 17 3 19 12 10 9 -9 16 -8 32 6 18 16 19 16 13
0 -3 -9 -1 -19 6 -22 7 -2 -1 -5 -16 -5 -16 -1 -26 -5 -22 -11 3 -5 -1 -10 -9
-10 -9 0 -16 -4 -16 -9 0 -15 60 -18 86 -5 14 7 41 13 62 12 68 -1 73 1 88 37
16 38 40 49 29 13 -6 -17 -4 -20 9 -15 10 4 15 3 11 -3 -3 -6 3 -10 14 -10 12
0 21 7 21 15 0 19 16 19 24 0 4 -12 19 -14 75 -10 38 3 88 12 111 20 24 8 53
15 66 15 13 0 24 5 24 10 0 6 12 10 28 10 24 1 25 2 10 14 -10 7 -18 16 -18
19 0 9 44 -6 58 -20 16 -15 41 -17 76 -3 27 10 26 34 -2 56 -12 9 -12 13 3 27
14 14 15 20 5 32 -10 12 -10 15 3 15 8 0 17 -10 21 -22 5 -18 8 -20 15 -9 5 7
13 11 19 7 6 -3 13 -2 17 4 3 5 16 10 29 10 12 0 31 6 41 14 19 13 17 15 -18
20 -47 8 -91 14 -142 21 -22 3 -49 10 -60 14 -26 11 -160 31 -248 36 -38 3
-72 7 -77 10 -5 3 -30 8 -57 11 -73 9 -98 12 -98 15 0 1 -11 3 -25 4 -14 2
-45 6 -70 9 -25 4 -75 9 -112 13 -38 3 -68 10 -68 14 0 5 -16 9 -35 9 -24 0
-35 5 -35 15 0 17 -16 20 -25 5 -5 -8 -11 -8 -20 0 -10 8 -14 8 -17 -1 -3 -8
-11 -10 -22 -6 -9 4 -15 10 -13 14 3 5 -33 8 -79 7 -47 0 -87 3 -90 8 -3 4
-23 8 -44 8 -44 0 -130 20 -130 31 0 14 -50 19 -70 7 -15 -10 -34 -9 -97 4
-43 9 -85 19 -93 22 -8 3 -26 -1 -39 -8z"/>
<path d="M5444 2688 c-79 -133 -84 -143 -155 -273 -30 -55 -59 -109 -66 -120
-7 -11 -17 -30 -22 -42 -12 -26 -16 -27 -60 -12 -32 11 -40 24 -18 32 8 3 2
15 -17 36 -28 29 -55 43 -41 21 10 -16 -11 -11 -25 5 -7 9 -18 14 -25 12 -6
-3 -22 1 -35 8 -18 10 -29 10 -38 3 -9 -8 -11 -7 -6 6 4 11 1 16 -14 16 -11 0
-22 7 -26 15 -6 17 -36 9 -36 -9 0 -18 72 -91 91 -92 9 -1 16 6 15 15 -1 9 8
17 22 19 15 2 22 -2 22 -13 0 -12 6 -16 20 -12 11 3 18 0 17 -6 -1 -6 11 -17
26 -25 20 -10 26 -19 22 -33 -3 -10 -8 -28 -11 -39 -4 -15 1 -21 23 -26 15 -3
53 -12 84 -20 69 -17 69 -17 69 -1 0 13 68 186 125 317 20 47 51 123 70 170
18 47 40 102 49 123 9 20 14 37 12 37 -3 0 -35 -51 -72 -112z"/>
<path d="M7016 2307 c-3 -45 -9 -187 -13 -314 -6 -217 -7 -233 -25 -239 -12
-3 -17 -12 -14 -20 4 -9 -3 -18 -17 -24 -20 -8 -19 -9 8 -6 23 2 34 11 47 37
9 19 17 44 18 56 0 12 9 42 20 67 21 50 30 53 105 37 167 -38 336 -25 368 26
4 7 13 13 19 13 26 0 87 106 88 153 0 36 -16 26 -25 -16 -12 -54 -42 -103 -77
-125 -18 -12 -42 -28 -53 -36 -39 -29 -228 -20 -365 18 -33 9 -46 18 -51 36
-4 14 -7 111 -8 217 -1 200 -13 261 -25 120z"/>
</g>
</svg>
